# xmcd CD database file generated by LOLA_Freedb v0.9beta0
# 
# Track frame offsets:
#      150
#      14170
#      40492
# 
# Disc length: 1389 seconds
# 
# Revision: 1 
# Processed by: cddbd v1.5.2PL0 Copyright (c) Steve Scherf et al.
# Submitted via: LOLA_Freedb v0.9beta0
# 
DISCID=24056b03
DTITLE=Jan Delay - Türlich Türlich - Word Up
DYEAR=2007
DGENRE=Rave
TTITLE0=Türlich, Türlich - Word Up Live Radio Edit
TTITLE1=Türlich Türlich - Word Up Live
TTITLE2=Daten-CD
EXTD=Single Pur 2 Tracks
EXTT0=
EXTT1=
EXTT2=
PLAYORDER=
